<?xml version="1.0" encoding="UTF-8" standalone="no"?>
<!-- Created with Inkscape (http://www.inkscape.org/) -->

<svg
   xmlns:dc="http://purl.org/dc/elements/1.1/"
   xmlns:cc="http://creativecommons.org/ns#"
   xmlns:rdf="http://www.w3.org/1999/02/22-rdf-syntax-ns#"
   xmlns:svg="http://www.w3.org/2000/svg"
   xmlns="http://www.w3.org/2000/svg"
   xmlns:sodipodi="http://sodipodi.sourceforge.net/DTD/sodipodi-0.dtd"
   xmlns:inkscape="http://www.inkscape.org/namespaces/inkscape"
   id="svg3348"
   version="1.1"
   inkscape:version="0.48.3.1 r9886"
   width="715.08063"
   height="165.98538"
   xml:space="preserve"
   sodipodi:docname="logo-fond-noir.svg"><metadata
     id="metadata3354"><rdf:RDF><cc:Work
         rdf:about=""><dc:format>image/svg+xml</dc:format><dc:type
           rdf:resource="http://purl.org/dc/dcmitype/StillImage" /><dc:title></dc:title></cc:Work></rdf:RDF></metadata><defs
     id="defs3352"><clipPath
       clipPathUnits="userSpaceOnUse"
       id="clipPath3362"><path
         d="m 0,841.89 595.28,0 L 595.28,0 0,0 0,841.89 z"
         id="path3364"
         inkscape:connector-curvature="0" /></clipPath></defs><sodipodi:namedview
     pagecolor="#ffffff"
     bordercolor="#666666"
     borderopacity="1"
     objecttolerance="10"
     gridtolerance="10"
     guidetolerance="10"
     inkscape:pageopacity="0"
     inkscape:pageshadow="2"
     inkscape:window-width="1920"
     inkscape:window-height="1004"
     id="namedview3350"
     showgrid="false"
     inkscape:zoom="1.2685909"
     inkscape:cx="391.85053"
     inkscape:cy="307.80291"
     inkscape:window-x="0"
     inkscape:window-y="24"
     inkscape:window-maximized="1"
     inkscape:current-layer="g3356"
     fit-margin-top="0"
     fit-margin-left="0"
     fit-margin-right="0"
     fit-margin-bottom="0" /><g
     id="g3356"
     inkscape:groupmode="layer"
     inkscape:label="logo-fond-noir"
     transform="matrix(1.25,0,0,-1.25,-8.214125,610.7265)"><g
       id="g3358"><g
         id="g3360"
         clip-path="url(#clipPath3362)"><g
           id="g3366"
           transform="translate(117.9771,457.3779)"><path
             d="M 0,0 0,0.113 -0.013,0.11 c -0.272,2.891 -2.798,5.053 -5.71,4.85 -2.957,-0.206 -5.183,-2.769 -4.979,-5.72 l -0.003,0 0,-75.672 c 0,-3.922 -1.404,-7.29 -4.216,-10.1 -2.809,-2.812 -6.088,-4.217 -9.834,-4.217 -4.328,0 -7.894,1.405 -10.706,4.217 -2.766,2.72 -4.192,6.152 -4.282,10.305 l 0,31.491 -0.017,0 c 0,0.033 0.003,0.064 0.003,0.099 -0.13,2.949 -2.626,5.236 -5.576,5.112 -2.836,-0.124 -5.054,-2.438 -5.11,-5.236 l -0.006,0 0,-31.671 c 0,-6.864 2.454,-12.797 7.361,-17.796 4.817,-4.907 10.794,-7.357 17.932,-7.357 6.958,0 12.889,2.45 17.797,7.357 4.905,4.91 7.359,10.837 7.359,17.796 l 0,75.708 c 0.014,0.234 0.02,0.469 0.002,0.708 0,0.003 0,0.01 -0.002,0.016"
             style="fill:#ffffff;fill-opacity:1;fill-rule:nonzero;stroke:none"
             id="path3368"
             inkscape:connector-curvature="0" /></g><g
           id="g3370"
           transform="translate(224.9321,468.5547)"><path
             d="m 0,0 c 1.823,0 3.375,0.658 4.66,1.976 1.285,1.318 1.926,2.887 1.926,4.712 0,1.856 -0.641,3.428 -1.926,4.71 -1.316,1.319 -2.871,1.976 -4.66,1.976 -1.826,0 -3.38,-0.657 -4.661,-1.976 -1.288,-1.315 -1.926,-2.886 -1.926,-4.71 0,-1.859 0.638,-3.437 1.926,-4.738 C -3.38,0.65 -1.826,0 0,0"
             style="fill:#ffffff;fill-opacity:1;fill-rule:nonzero;stroke:none"
             id="path3372"
             inkscape:connector-curvature="0" /></g><g
           id="g3374"
           transform="translate(112.4907,481.9287)"><path
             d="m 0,0 c -1.824,0 -3.378,-0.657 -4.662,-1.976 -1.285,-1.315 -1.925,-2.886 -1.925,-4.71 0,-1.859 0.64,-3.437 1.925,-4.738 1.284,-1.3 2.838,-1.95 4.662,-1.95 1.825,0 3.378,0.658 4.66,1.976 1.286,1.318 1.927,2.887 1.927,4.712 0,1.856 -0.641,3.428 -1.927,4.71 C 3.345,-0.657 1.791,0 0,0"
             style="fill:#ffffff;fill-opacity:1;fill-rule:nonzero;stroke:none"
             id="path3376"
             inkscape:connector-curvature="0" /></g><g
           id="g3378"
           transform="translate(163.1851,407.9092)"><path
             d="m 0,0 c -0.09,-4.146 -1.519,-7.584 -4.282,-10.3 -2.856,-2.811 -6.156,-4.217 -9.903,-4.217 -3.879,0 -7.336,1.406 -10.371,4.217 -2.988,2.764 -4.482,6.199 -4.482,10.3 l 0,24.623 c 0.044,3.836 1.449,7.137 4.215,9.905 2.811,2.808 6.088,4.213 9.835,4.213 4.282,0 7.85,-1.405 10.706,-4.213 C -1.519,31.805 -0.09,28.373 0,24.224 L 0,0 z m -14.585,49.582 c -6.959,0 -12.892,-2.455 -17.797,-7.362 -4.907,-4.907 -7.361,-10.838 -7.361,-17.797 l 0,-24.622 c 0,-6.958 2.454,-12.893 7.361,-17.799 4.905,-4.907 10.838,-7.36 17.797,-7.36 6.956,0 12.911,2.453 17.862,7.36 4.952,4.906 7.428,10.841 7.428,17.799 l 0,24.622 c 0,6.959 -2.476,12.89 -7.428,17.797 -4.951,4.907 -10.906,7.362 -17.862,7.362"
             style="fill:#ffffff;fill-opacity:1;fill-rule:nonzero;stroke:none"
             id="path3380"
             inkscape:connector-curvature="0" /></g><g
           id="g3382"
           transform="translate(428.7744,420.0889)"><path
             d="m 0,0 0,12.244 c 0,3.924 1.406,7.293 4.217,10.104 2.807,2.809 6.088,4.213 9.831,4.213 4.287,0 7.853,-1.407 10.71,-4.225 2.586,-2.547 3.987,-5.7 4.213,-9.455 L 0,0 z m 39.742,12.244 c 0,7.226 -2.477,13.156 -7.425,17.796 -5.217,4.908 -11.175,7.362 -17.865,7.362 -6.958,0 -12.89,-2.454 -17.8,-7.362 -4.906,-4.907 -7.357,-10.837 -7.357,-17.796 l 0,-24.623 c 0,-6.958 2.451,-12.892 7.357,-17.799 4.91,-4.907 10.842,-7.36 17.8,-7.36 6.956,0 12.713,2.413 17.265,7.228 5.348,5.709 8.025,11.688 8.025,17.931 l 0,4.192 c -0.034,2.941 -2.423,5.321 -5.373,5.321 -2.692,0 -4.916,-1.982 -5.31,-4.565 l -0.023,0.005 0,-0.173 c -0.024,-0.213 -0.042,-0.423 -0.042,-0.641 0,-0.22 0.018,-0.433 0.042,-0.647 l 0,-3.293 c -0.089,-4.146 -1.516,-7.584 -4.278,-10.299 -2.857,-2.812 -6.158,-4.217 -9.904,-4.217 -4.283,0 -7.83,1.437 -10.637,4.315 C 1.406,-19.505 0,-15.951 0,-11.713 l 39.742,17.668 0,6.289 z"
             style="fill:#ffffff;fill-opacity:1;fill-rule:nonzero;stroke:none"
             id="path3384"
             inkscape:connector-curvature="0" /></g><g
           id="g3386"
           transform="translate(403.1094,407.9092)"><path
             d="m 0,0 c -0.09,-4.146 -1.521,-7.584 -4.281,-10.3 -2.857,-2.811 -6.157,-4.217 -9.9,-4.217 -3.883,0 -7.34,1.406 -10.376,4.217 -2.987,2.764 -4.482,6.199 -4.482,10.3 l 0,24.623 c 0.046,3.836 1.45,7.137 4.218,9.905 2.811,2.808 6.088,4.213 9.835,4.213 4.281,0 7.848,-1.405 10.705,-4.213 C -1.521,31.805 -0.09,28.373 0,24.224 L 0,0 z m 5.403,79.64 c -2.91,0 -5.271,-2.309 -5.366,-5.191 L 0,74.447 0,45.03 c -4.237,3.033 -9.098,4.552 -14.586,4.552 -6.959,0 -12.887,-2.455 -17.796,-7.362 -4.906,-4.907 -7.358,-10.838 -7.358,-17.797 l 0,-24.622 c 0,-6.958 2.452,-12.893 7.358,-17.799 4.909,-4.907 10.837,-7.36 17.796,-7.36 6.958,0 12.916,2.453 17.863,7.36 4.953,4.906 7.43,10.841 7.43,17.799 l 0,73.645 c 0.04,0.269 0.068,0.541 0.068,0.821 0,2.966 -2.406,5.373 -5.372,5.373"
             style="fill:#ffffff;fill-opacity:1;fill-rule:nonzero;stroke:none"
             id="path3388"
             inkscape:connector-curvature="0" /></g><g
           id="g3390"
           transform="translate(348.1924,407.9092)"><path
             d="m 0,0 c -0.09,-4.146 -1.515,-7.584 -4.281,-10.3 -2.857,-2.811 -6.154,-4.217 -9.9,-4.217 -3.883,0 -7.34,1.406 -10.376,4.217 -2.987,2.764 -4.482,6.199 -4.482,10.3 l 0,4.043 c 0.005,0.126 0.021,0.248 0.021,0.375 l 0,5.553 -0.021,-0.006 0,14.658 c 0.046,3.836 1.452,7.137 4.218,9.905 2.811,2.808 6.088,4.213 9.835,4.213 4.285,0 7.848,-1.405 10.705,-4.213 C -1.515,31.805 -0.09,28.373 0,24.224 L 0,0 z m -14.586,49.582 c -6.959,0 -12.887,-2.455 -17.796,-7.362 -4.906,-4.907 -7.357,-10.838 -7.357,-17.797 l 0,-20.548 c -0.082,-5.202 -1.987,-9.643 -5.739,-13.305 -3.836,-3.796 -8.408,-5.686 -13.715,-5.686 -5.398,0 -9.993,1.89 -13.785,5.686 -3.457,3.453 -5.318,7.547 -5.625,12.266 l 0,2.316 -0.06,-0.006 0,41.021 c 0,5.354 1.893,9.913 5.685,13.683 3.792,3.768 8.387,5.654 13.785,5.654 5.307,0 9.879,-1.896 13.715,-5.688 1.562,-1.544 3.23,-4.092 4.595,-6.523 1.453,-2.499 4.652,-3.346 7.154,-1.896 2.341,1.361 3.232,4.262 2.137,6.677 l 0.012,0.007 c -1.458,3.205 -3.546,6.171 -6.272,8.895 -5.797,5.845 -12.912,8.765 -21.341,8.765 -8.342,0 -15.458,-2.91 -21.344,-8.731 -5.888,-5.821 -8.832,-12.836 -8.832,-21.041 l 0,-41.551 c 0,-0.433 0.041,-0.846 0.057,-1.272 -0.048,-7.116 -1.45,-10.135 -4.21,-13.11 -2.81,-3.038 -6.089,-4.553 -9.836,-4.553 -4.282,0 -7.851,1.406 -10.705,4.217 -2.765,2.716 -4.193,6.154 -4.282,10.3 l 0,49.582 -0.029,-0.003 c -0.003,0.023 0.002,0.043 0,0.063 -0.125,2.946 -2.612,5.234 -5.557,5.11 -2.948,-0.124 -5.235,-2.613 -5.11,-5.559 0,-0.02 0.005,-0.039 0.005,-0.059 l -0.013,0 0,-48.643 -0.044,-0.021 c 0,-3.927 -1.406,-7.404 -4.219,-10.434 -2.808,-3.038 -6.086,-4.553 -9.834,-4.553 -4.282,0 -7.849,1.406 -10.706,4.217 -2.764,2.716 -4.191,6.154 -4.279,10.3 l 0,74.976 c 0.006,0.112 0.016,0.222 0.016,0.335 0,2.962 -2.401,5.361 -5.362,5.361 -2.961,0 -5.359,-2.399 -5.359,-5.361 l 0,-0.017 -0.003,0 0,-75.493 c 0,-6.958 2.476,-12.893 7.428,-17.799 4.952,-4.907 10.906,-7.36 17.865,-7.36 6.956,0 12.889,2.453 17.797,7.36 0.747,0.748 1.42,1.531 2.054,2.324 0.641,-0.793 1.317,-1.576 2.072,-2.324 4.95,-4.907 10.906,-7.36 17.864,-7.36 6.96,0 12.891,2.453 17.798,7.36 1.208,1.208 2.267,2.483 3.178,3.817 0.698,-0.846 1.437,-1.676 2.246,-2.477 5.84,-5.799 12.957,-8.7 21.344,-8.7 8.339,0 15.454,2.914 21.341,8.734 0.813,0.804 1.556,1.638 2.258,2.487 0.92,-1.348 1.99,-2.636 3.212,-3.861 4.909,-4.907 10.837,-7.36 17.796,-7.36 6.959,0 12.916,2.453 17.869,7.36 4.947,4.906 7.425,10.841 7.425,17.799 l 0,24.622 c 0,6.959 -2.478,12.89 -7.425,17.797 -4.953,4.907 -10.91,7.362 -17.869,7.362"
             style="fill:#ffffff;fill-opacity:1;fill-rule:nonzero;stroke:none"
             id="path3392"
             inkscape:connector-curvature="0" /></g><g
           id="g3394"
           transform="translate(538.0488,378.708)"><path
             d="m 0,0 c -1.247,0 -2.492,0.473 -3.444,1.424 -1.9,1.906 -1.9,4.99 0,6.89 L 28.822,40.581 -3.444,72.849 c -1.9,1.903 -1.9,4.987 0,6.889 1.903,1.904 4.988,1.904 6.892,0 L 39.16,44.026 c 0.915,-0.913 1.427,-2.154 1.427,-3.445 0,-1.292 -0.512,-2.534 -1.427,-3.444 L 3.448,1.424 C 2.496,0.473 1.25,0 0,0"
             style="fill:#e5cf19;fill-opacity:1;fill-rule:nonzero;stroke:none"
             id="path3396"
             inkscape:connector-curvature="0" /></g><g
           id="g3398"
           transform="translate(47.1553,379.9766)"><path
             d="m 0,0 c -1.246,0 -2.492,0.477 -3.445,1.427 l -35.714,35.712 c -0.913,0.914 -1.425,2.153 -1.425,3.445 0,1.291 0.512,2.531 1.425,3.445 l 35.712,35.712 c 1.905,1.904 4.989,1.904 6.891,0 1.903,-1.902 1.903,-4.988 0,-6.89 L -28.823,40.584 3.444,8.317 c 1.905,-1.9 1.905,-4.987 0,-6.89 C 2.495,0.477 1.246,0 0,0"
             style="fill:#e5cf19;fill-opacity:1;fill-rule:nonzero;stroke:none"
             id="path3400"
             inkscape:connector-curvature="0" /></g><g
           id="g3402"
           transform="translate(480.54,367.8047)"><path
             d="M 0,0 C -0.616,0 -1.244,0.118 -1.854,0.369 -4.343,1.394 -5.527,4.241 -4.502,6.731 L 33.914,99.95 c 1.026,2.488 3.875,3.673 6.363,2.647 2.486,-1.023 3.674,-3.87 2.647,-6.36 L 4.508,3.021 C 3.73,1.138 1.917,0 0,0"
             style="fill:#e5cf19;fill-opacity:1;fill-rule:nonzero;stroke:none"
             id="path3404"
             inkscape:connector-curvature="0" /></g></g></g></g></svg>